<svg xmlns="http://www.w3.org/2000/svg" width="30" height="30"><g fill="none" fill-rule="evenodd"><circle cx="15" cy="15" r="15" fill="#000"/><path fill="#FFF" d="M6.878 9.886a2.02 2.02 0 0 1 .562-1.268l1.315-1.387c.206-.209.432-.317.651-.317.216 0 .435.108.637.324.236.232.46.474.7.731.12.13.244.261.367.396l1.054 1.111c.22.231.332.466.332.698 0 .23-.113.466-.332.697l-.329.35c-.329.351-.636.683-.976 1l-.017.019c-.294.31-.248.604-.177.828l.01.03c.273.69.651 1.346 1.242 2.13 1.06 1.38 2.178 2.45 3.408 3.274.152.105.315.187.467.269.141.074.272.145.389.224l.039.022c.117.063.23.093.343.093.283 0 .467-.19.527-.253l1.322-1.395c.205-.217.428-.332.647-.332.269 0 .488.175.626.332l2.132 2.245c.425.448.421.932-.01 1.406-.149.168-.304.328-.47.496-.248.254-.506.515-.74.81-.406.462-.89.678-1.517.678a3.03 3.03 0 0 1-.183-.007c-1.16-.078-2.239-.556-3.048-.962-2.2-1.123-4.13-2.716-5.732-4.737-1.32-1.675-2.207-3.234-2.794-4.905-.364-1.026-.502-1.85-.445-2.6m2.567 8.08c1.683 2.121 3.71 3.792 6.022 4.975.88.44 2.058.962 3.37 1.052.08.003.159.007.24.007.88 0 1.588-.32 2.164-.98.003-.005.01-.012.014-.02.205-.26.438-.496.682-.746.167-.167.336-.343.499-.522.753-.828.753-1.88-.007-2.681l-2.125-2.242c-.36-.395-.792-.604-1.245-.604-.452 0-.887.209-1.259.6l-1.265 1.336a6.238 6.238 0 0 0-.35-.194 4.303 4.303 0 0 1-.39-.224c-1.152-.772-2.199-1.78-3.2-3.074-.505-.675-.845-1.242-1.082-1.82.333-.317.644-.649.945-.973.106-.116.215-.231.325-.347.382-.403.587-.87.587-1.343s-.202-.94-.587-1.343l-1.054-1.111c-.124-.13-.24-.257-.36-.388a19.946 19.946 0 0 0-.718-.75C10.287 6.198 9.859 6 9.406 6c-.449 0-.88.198-1.259.578L6.825 7.973a2.935 2.935 0 0 0-.81 1.835c-.067.892.089 1.839.492 2.984.618 1.772 1.552 3.416 2.938 5.173"/></g></svg>